<?xml version="1.0" encoding="utf-8" standalone="no"?>
<!DOCTYPE svg PUBLIC "-//W3C//DTD SVG 1.1//EN"
  "http://www.w3.org/Graphics/SVG/1.1/DTD/svg11.dtd">
<svg xmlns:xlink="http://www.w3.org/1999/xlink" width="720pt" height="216pt" viewBox="0 0 720 216" xmlns="http://www.w3.org/2000/svg" version="1.1">
 <metadata>
  <rdf:RDF xmlns:dc="http://purl.org/dc/elements/1.1/" xmlns:cc="http://creativecommons.org/ns#" xmlns:rdf="http://www.w3.org/1999/02/22-rdf-syntax-ns#">
   <cc:Work>
    <dc:type rdf:resource="http://purl.org/dc/dcmitype/StillImage"/>
    <dc:date>2025-05-15T16:35:21.382991</dc:date>
    <dc:format>image/svg+xml</dc:format>
    <dc:creator>
     <cc:Agent>
      <dc:title>Matplotlib v3.10.3, https://matplotlib.org/</dc:title>
     </cc:Agent>
    </dc:creator>
   </cc:Work>
  </rdf:RDF>
 </metadata>
 <defs>
  <style type="text/css">*{stroke-linejoin: round; stroke-linecap: butt}</style>
 </defs>
 <g id="figure_1">
  <g id="patch_1">
   <path d="M 0 216 
L 720 216 
L 720 0 
L 0 0 
z
" style="fill: #ffffff"/>
  </g>
  <g id="axes_1">
   <g id="patch_2">
    <path d="M 50.69 144.591078 
L 709.2 144.591078 
L 709.2 10.8 
L 50.69 10.8 
z
" style="fill: #ffffff"/>
   </g>
   <g id="patch_3">
    <path d="M 80.622273 144.591078 
L 83.339272 144.591078 
L 83.339272 144.591078 
L 80.622273 144.591078 
z
" clip-path="url(#p89d4040db7)" style="fill: #1f77b4; stroke: #808080; stroke-linejoin: miter"/>
   </g>
   <g id="patch_4">
    <path d="M 85.150604 144.591078 
L 87.867603 144.591078 
L 87.867603 144.591078 
L 85.150604 144.591078 
z
" clip-path="url(#p89d4040db7)" style="fill: #1f77b4; stroke: #808080; stroke-linejoin: miter"/>
   </g>
   <g id="patch_5">
    <path d="M 89.678936 144.591078 
L 92.395935 144.591078 
L 92.395935 144.591078 
L 89.678936 144.591078 
z
" clip-path="url(#p89d4040db7)" style="fill: #1f77b4; stroke: #808080; stroke-linejoin: miter"/>
   </g>
   <g id="patch_6">
    <path d="M 94.207268 144.591078 
L 96.924267 144.591078 
L 96.924267 144.591078 
L 94.207268 144.591078 
z
" clip-path="url(#p89d4040db7)" style="fill: #1f77b4; stroke: #808080; stroke-linejoin: miter"/>
   </g>
   <g id="patch_7">
    <path d="M 98.7356 144.591078 
L 101.452599 144.591078 
L 101.452599 144.591078 
L 98.7356 144.591078 
z
" clip-path="url(#p89d4040db7)" style="fill: #1f77b4; stroke: #808080; stroke-linejoin: miter"/>
   </g>
   <g id="patch_8">
    <path d="M 103.263931 144.591078 
L 105.98093 144.591078 
L 105.98093 144.591078 
L 103.263931 144.591078 
z
" clip-path="url(#p89d4040db7)" style="fill: #1f77b4; stroke: #808080; stroke-linejoin: miter"/>
   </g>
   <g id="patch_9">
    <path d="M 107.792263 144.591078 
L 110.509262 144.591078 
L 110.509262 144.591078 
L 107.792263 144.591078 
z
" clip-path="url(#p89d4040db7)" style="fill: #1f77b4; stroke: #808080; stroke-linejoin: miter"/>
   </g>
   <g id="patch_10">
    <path d="M 112.320595 144.591078 
L 115.037594 144.591078 
L 115.037594 144.591078 
L 112.320595 144.591078 
z
" clip-path="url(#p89d4040db7)" style="fill: #1f77b4; stroke: #808080; stroke-linejoin: miter"/>
   </g>
   <g id="patch_11">
    <path d="M 116.848927 144.591078 
L 119.565926 144.591078 
L 119.565926 144.591078 
L 116.848927 144.591078 
z
" clip-path="url(#p89d4040db7)" style="fill: #1f77b4; stroke: #808080; stroke-linejoin: miter"/>
   </g>
   <g id="patch_12">
    <path d="M 121.377258 144.591078 
L 124.094257 144.591078 
L 124.094257 144.591078 
L 121.377258 144.591078 
z
" clip-path="url(#p89d4040db7)" style="fill: #1f77b4; stroke: #808080; stroke-linejoin: miter"/>
   </g>
   <g id="patch_13">
    <path d="M 125.90559 144.591078 
L 128.622589 144.591078 
L 128.622589 144.591078 
L 125.90559 144.591078 
z
" clip-path="url(#p89d4040db7)" style="fill: #1f77b4; stroke: #808080; stroke-linejoin: miter"/>
   </g>
   <g id="patch_14">
    <path d="M 130.433922 144.591078 
L 133.150921 144.591078 
L 133.150921 144.591078 
L 130.433922 144.591078 
z
" clip-path="url(#p89d4040db7)" style="fill: #1f77b4; stroke: #808080; stroke-linejoin: miter"/>
   </g>
   <g id="patch_15">
    <path d="M 134.962253 144.591078 
L 137.679253 144.591078 
L 137.679253 144.591078 
L 134.962253 144.591078 
z
" clip-path="url(#p89d4040db7)" style="fill: #1f77b4; stroke: #808080; stroke-linejoin: miter"/>
   </g>
   <g id="patch_16">
    <path d="M 139.490585 144.591078 
L 142.207584 144.591078 
L 142.207584 144.591078 
L 139.490585 144.591078 
z
" clip-path="url(#p89d4040db7)" style="fill: #1f77b4; stroke: #808080; stroke-linejoin: miter"/>
   </g>
   <g id="patch_17">
    <path d="M 144.018917 144.591078 
L 146.735916 144.591078 
L 146.735916 144.591078 
L 144.018917 144.591078 
z
" clip-path="url(#p89d4040db7)" style="fill: #1f77b4; stroke: #808080; stroke-linejoin: miter"/>
   </g>
   <g id="patch_18">
    <path d="M 148.547249 144.591078 
L 151.264248 144.591078 
L 151.264248 144.591078 
L 148.547249 144.591078 
z
" clip-path="url(#p89d4040db7)" style="fill: #1f77b4; stroke: #808080; stroke-linejoin: miter"/>
   </g>
   <g id="patch_19">
    <path d="M 153.07558 144.591078 
L 155.792579 144.591078 
L 155.792579 144.591078 
L 153.07558 144.591078 
z
" clip-path="url(#p89d4040db7)" style="fill: #1f77b4; stroke: #808080; stroke-linejoin: miter"/>
   </g>
   <g id="patch_20">
    <path d="M 157.603912 144.591078 
L 160.320911 144.591078 
L 160.320911 144.591078 
L 157.603912 144.591078 
z
" clip-path="url(#p89d4040db7)" style="fill: #1f77b4; stroke: #808080; stroke-linejoin: miter"/>
   </g>
   <g id="patch_21">
    <path d="M 162.132244 144.591078 
L 164.849243 144.591078 
L 164.849243 144.591078 
L 162.132244 144.591078 
z
" clip-path="url(#p89d4040db7)" style="fill: #1f77b4; stroke: #808080; stroke-linejoin: miter"/>
   </g>
   <g id="patch_22">
    <path d="M 166.660576 144.591078 
L 169.377575 144.591078 
L 169.377575 144.591078 
L 166.660576 144.591078 
z
" clip-path="url(#p89d4040db7)" style="fill: #1f77b4; stroke: #808080; stroke-linejoin: miter"/>
   </g>
   <g id="patch_23">
    <path d="M 171.188907 144.591078 
L 173.905906 144.591078 
L 173.905906 144.591078 
L 171.188907 144.591078 
z
" clip-path="url(#p89d4040db7)" style="fill: #1f77b4; stroke: #808080; stroke-linejoin: miter"/>
   </g>
   <g id="patch_24">
    <path d="M 175.717239 144.591078 
L 178.434238 144.591078 
L 178.434238 144.591078 
L 175.717239 144.591078 
z
" clip-path="url(#p89d4040db7)" style="fill: #1f77b4; stroke: #808080; stroke-linejoin: miter"/>
   </g>
   <g id="patch_25">
    <path d="M 180.245571 144.591078 
L 182.96257 144.591078 
L 182.96257 144.591078 
L 180.245571 144.591078 
z
" clip-path="url(#p89d4040db7)" style="fill: #1f77b4; stroke: #808080; stroke-linejoin: miter"/>
   </g>
   <g id="patch_26">
    <path d="M 184.773902 144.591078 
L 187.490902 144.591078 
L 187.490902 144.591078 
L 184.773902 144.591078 
z
" clip-path="url(#p89d4040db7)" style="fill: #1f77b4; stroke: #808080; stroke-linejoin: miter"/>
   </g>
   <g id="patch_27">
    <path d="M 189.302234 144.591078 
L 192.019233 144.591078 
L 192.019233 144.591078 
L 189.302234 144.591078 
z
" clip-path="url(#p89d4040db7)" style="fill: #1f77b4; stroke: #808080; stroke-linejoin: miter"/>
   </g>
   <g id="patch_28">
    <path d="M 193.830566 144.591078 
L 196.547565 144.591078 
L 196.547565 144.591078 
L 193.830566 144.591078 
z
" clip-path="url(#p89d4040db7)" style="fill: #1f77b4; stroke: #808080; stroke-linejoin: miter"/>
   </g>
   <g id="patch_29">
    <path d="M 198.358898 144.591078 
L 201.075897 144.591078 
L 201.075897 144.591078 
L 198.358898 144.591078 
z
" clip-path="url(#p89d4040db7)" style="fill: #1f77b4; stroke: #808080; stroke-linejoin: miter"/>
   </g>
   <g id="patch_30">
    <path d="M 202.887229 144.591078 
L 205.604228 144.591078 
L 205.604228 144.591078 
L 202.887229 144.591078 
z
" clip-path="url(#p89d4040db7)" style="fill: #1f77b4; stroke: #808080; stroke-linejoin: miter"/>
   </g>
   <g id="patch_31">
    <path d="M 207.415561 144.591078 
L 210.13256 144.591078 
L 210.13256 144.591078 
L 207.415561 144.591078 
z
" clip-path="url(#p89d4040db7)" style="fill: #1f77b4; stroke: #808080; stroke-linejoin: miter"/>
   </g>
   <g id="patch_32">
    <path d="M 211.943893 144.591078 
L 214.660892 144.591078 
L 214.660892 144.591078 
L 211.943893 144.591078 
z
" clip-path="url(#p89d4040db7)" style="fill: #1f77b4; stroke: #808080; stroke-linejoin: miter"/>
   </g>
   <g id="patch_33">
    <path d="M 216.472225 144.591078 
L 219.189224 144.591078 
L 219.189224 144.591078 
L 216.472225 144.591078 
z
" clip-path="url(#p89d4040db7)" style="fill: #1f77b4; stroke: #808080; stroke-linejoin: miter"/>
   </g>
   <g id="patch_34">
    <path d="M 221.000556 144.591078 
L 223.717555 144.591078 
L 223.717555 144.591078 
L 221.000556 144.591078 
z
" clip-path="url(#p89d4040db7)" style="fill: #1f77b4; stroke: #808080; stroke-linejoin: miter"/>
   </g>
   <g id="patch_35">
    <path d="M 225.528888 144.591078 
L 228.245887 144.591078 
L 228.245887 144.591078 
L 225.528888 144.591078 
z
" clip-path="url(#p89d4040db7)" style="fill: #1f77b4; stroke: #808080; stroke-linejoin: miter"/>
   </g>
   <g id="patch_36">
    <path d="M 230.05722 144.591078 
L 232.774219 144.591078 
L 232.774219 144.591078 
L 230.05722 144.591078 
z
" clip-path="url(#p89d4040db7)" style="fill: #1f77b4; stroke: #808080; stroke-linejoin: miter"/>
   </g>
   <g id="patch_37">
    <path d="M 234.585552 144.591078 
L 237.302551 144.591078 
L 237.302551 144.591078 
L 234.585552 144.591078 
z
" clip-path="url(#p89d4040db7)" style="fill: #1f77b4; stroke: #808080; stroke-linejoin: miter"/>
   </g>
   <g id="patch_38">
    <path d="M 239.113883 144.591078 
L 241.830882 144.591078 
L 241.830882 144.591078 
L 239.113883 144.591078 
z
" clip-path="url(#p89d4040db7)" style="fill: #1f77b4; stroke: #808080; stroke-linejoin: miter"/>
   </g>
   <g id="patch_39">
    <path d="M 243.642215 144.591078 
L 246.359214 144.591078 
L 246.359214 144.591078 
L 243.642215 144.591078 
z
" clip-path="url(#p89d4040db7)" style="fill: #1f77b4; stroke: #808080; stroke-linejoin: miter"/>
   </g>
   <g id="patch_40">
    <path d="M 248.170547 144.591078 
L 250.887546 144.591078 
L 250.887546 144.591078 
L 248.170547 144.591078 
z
" clip-path="url(#p89d4040db7)" style="fill: #1f77b4; stroke: #808080; stroke-linejoin: miter"/>
   </g>
   <g id="patch_41">
    <path d="M 252.698878 144.591078 
L 255.415877 144.591078 
L 255.415877 144.591078 
L 252.698878 144.591078 
z
" clip-path="url(#p89d4040db7)" style="fill: #1f77b4; stroke: #808080; stroke-linejoin: miter"/>
   </g>
   <g id="patch_42">
    <path d="M 257.22721 144.591078 
L 259.944209 144.591078 
L 259.944209 144.591078 
L 257.22721 144.591078 
z
" clip-path="url(#p89d4040db7)" style="fill: #1f77b4; stroke: #808080; stroke-linejoin: miter"/>
   </g>
   <g id="patch_43">
    <path d="M 261.755542 144.591078 
L 264.472541 144.591078 
L 264.472541 144.591078 
L 261.755542 144.591078 
z
" clip-path="url(#p89d4040db7)" style="fill: #1f77b4; stroke: #808080; stroke-linejoin: miter"/>
   </g>
   <g id="patch_44">
    <path d="M 266.283874 144.591078 
L 269.000873 144.591078 
L 269.000873 144.591078 
L 266.283874 144.591078 
z
" clip-path="url(#p89d4040db7)" style="fill: #1f77b4; stroke: #808080; stroke-linejoin: miter"/>
   </g>
   <g id="patch_45">
    <path d="M 270.812205 144.591078 
L 273.529204 144.591078 
L 273.529204 144.591078 
L 270.812205 144.591078 
z
" clip-path="url(#p89d4040db7)" style="fill: #1f77b4; stroke: #808080; stroke-linejoin: miter"/>
   </g>
   <g id="patch_46">
    <path d="M 275.340537 144.591078 
L 278.057536 144.591078 
L 278.057536 144.591078 
L 275.340537 144.591078 
z
" clip-path="url(#p89d4040db7)" style="fill: #1f77b4; stroke: #808080; stroke-linejoin: miter"/>
   </g>
   <g id="patch_47">
    <path d="M 279.868869 144.591078 
L 282.585868 144.591078 
L 282.585868 144.591078 
L 279.868869 144.591078 
z
" clip-path="url(#p89d4040db7)" style="fill: #1f77b4; stroke: #808080; stroke-linejoin: miter"/>
   </g>
   <g id="patch_48">
    <path d="M 284.397201 144.591078 
L 287.1142 144.591078 
L 287.1142 144.591078 
L 284.397201 144.591078 
z
" clip-path="url(#p89d4040db7)" style="fill: #1f77b4; stroke: #808080; stroke-linejoin: miter"/>
   </g>
   <g id="patch_49">
    <path d="M 288.925532 144.591078 
L 291.642531 144.591078 
L 291.642531 144.591078 
L 288.925532 144.591078 
z
" clip-path="url(#p89d4040db7)" style="fill: #1f77b4; stroke: #808080; stroke-linejoin: miter"/>
   </g>
   <g id="patch_50">
    <path d="M 293.453864 144.591078 
L 296.170863 144.591078 
L 296.170863 144.591078 
L 293.453864 144.591078 
z
" clip-path="url(#p89d4040db7)" style="fill: #1f77b4; stroke: #808080; stroke-linejoin: miter"/>
   </g>
   <g id="patch_51">
    <path d="M 297.982196 144.591078 
L 300.699195 144.591078 
L 300.699195 144.591078 
L 297.982196 144.591078 
z
" clip-path="url(#p89d4040db7)" style="fill: #1f77b4; stroke: #808080; stroke-linejoin: miter"/>
   </g>
   <g id="patch_52">
    <path d="M 302.510527 144.591078 
L 305.227526 144.591078 
L 305.227526 144.591078 
L 302.510527 144.591078 
z
" clip-path="url(#p89d4040db7)" style="fill: #1f77b4; stroke: #808080; stroke-linejoin: miter"/>
   </g>
   <g id="patch_53">
    <path d="M 307.038859 144.591078 
L 309.755858 144.591078 
L 309.755858 144.591078 
L 307.038859 144.591078 
z
" clip-path="url(#p89d4040db7)" style="fill: #1f77b4; stroke: #808080; stroke-linejoin: miter"/>
   </g>
   <g id="patch_54">
    <path d="M 311.567191 144.591078 
L 314.28419 144.591078 
L 314.28419 144.591078 
L 311.567191 144.591078 
z
" clip-path="url(#p89d4040db7)" style="fill: #1f77b4; stroke: #808080; stroke-linejoin: miter"/>
   </g>
   <g id="patch_55">
    <path d="M 316.095523 144.591078 
L 318.812522 144.591078 
L 318.812522 144.591078 
L 316.095523 144.591078 
z
" clip-path="url(#p89d4040db7)" style="fill: #1f77b4; stroke: #808080; stroke-linejoin: miter"/>
   </g>
   <g id="patch_56">
    <path d="M 320.623854 144.591078 
L 323.340853 144.591078 
L 323.340853 144.591078 
L 320.623854 144.591078 
z
" clip-path="url(#p89d4040db7)" style="fill: #1f77b4; stroke: #808080; stroke-linejoin: miter"/>
   </g>
   <g id="patch_57">
    <path d="M 325.152186 144.591078 
L 327.869185 144.591078 
L 327.869185 144.591078 
L 325.152186 144.591078 
z
" clip-path="url(#p89d4040db7)" style="fill: #1f77b4; stroke: #808080; stroke-linejoin: miter"/>
   </g>
   <g id="patch_58">
    <path d="M 329.680518 144.591078 
L 332.397517 144.591078 
L 332.397517 144.591078 
L 329.680518 144.591078 
z
" clip-path="url(#p89d4040db7)" style="fill: #1f77b4; stroke: #808080; stroke-linejoin: miter"/>
   </g>
   <g id="patch_59">
    <path d="M 334.20885 144.591078 
L 336.925849 144.591078 
L 336.925849 144.591078 
L 334.20885 144.591078 
z
" clip-path="url(#p89d4040db7)" style="fill: #1f77b4; stroke: #808080; stroke-linejoin: miter"/>
   </g>
   <g id="patch_60">
    <path d="M 338.737181 144.591078 
L 341.45418 144.591078 
L 341.45418 144.591078 
L 338.737181 144.591078 
z
" clip-path="url(#p89d4040db7)" style="fill: #1f77b4; stroke: #808080; stroke-linejoin: miter"/>
   </g>
   <g id="patch_61">
    <path d="M 343.265513 144.591078 
L 345.982512 144.591078 
L 345.982512 144.591078 
L 343.265513 144.591078 
z
" clip-path="url(#p89d4040db7)" style="fill: #1f77b4; stroke: #808080; stroke-linejoin: miter"/>
   </g>
   <g id="patch_62">
    <path d="M 347.793845 144.591078 
L 350.510844 144.591078 
L 350.510844 144.591078 
L 347.793845 144.591078 
z
" clip-path="url(#p89d4040db7)" style="fill: #1f77b4; stroke: #808080; stroke-linejoin: miter"/>
   </g>
   <g id="patch_63">
    <path d="M 352.322176 144.591078 
L 355.039175 144.591078 
L 355.039175 144.591078 
L 352.322176 144.591078 
z
" clip-path="url(#p89d4040db7)" style="fill: #1f77b4; stroke: #808080; stroke-linejoin: miter"/>
   </g>
   <g id="patch_64">
    <path d="M 356.850508 144.591078 
L 359.567507 144.591078 
L 359.567507 144.591078 
L 356.850508 144.591078 
z
" clip-path="url(#p89d4040db7)" style="fill: #1f77b4; stroke: #808080; stroke-linejoin: miter"/>
   </g>
   <g id="patch_65">
    <path d="M 361.37884 144.591078 
L 364.095839 144.591078 
L 364.095839 144.591078 
L 361.37884 144.591078 
z
" clip-path="url(#p89d4040db7)" style="fill: #1f77b4; stroke: #808080; stroke-linejoin: miter"/>
   </g>
   <g id="patch_66">
    <path d="M 365.907172 144.591078 
L 368.624171 144.591078 
L 368.624171 144.591078 
L 365.907172 144.591078 
z
" clip-path="url(#p89d4040db7)" style="fill: #1f77b4; stroke: #808080; stroke-linejoin: miter"/>
   </g>
   <g id="patch_67">
    <path d="M 370.435503 144.591078 
L 373.152502 144.591078 
L 373.152502 144.591078 
L 370.435503 144.591078 
z
" clip-path="url(#p89d4040db7)" style="fill: #1f77b4; stroke: #808080; stroke-linejoin: miter"/>
   </g>
   <g id="patch_68">
    <path d="M 374.963835 144.591078 
L 377.680834 144.591078 
L 377.680834 95.130761 
L 374.963835 95.130761 
z
" clip-path="url(#p89d4040db7)" style="fill: #1f77b4; stroke: #808080; stroke-linejoin: miter"/>
   </g>
   <g id="patch_69">
    <path d="M 379.492167 144.591078 
L 382.209166 144.591078 
L 382.209166 17.171004 
L 379.492167 17.171004 
z
" clip-path="url(#p89d4040db7)" style="fill: #1f77b4; stroke: #808080; stroke-linejoin: miter"/>
   </g>
   <g id="patch_70">
    <path d="M 384.020499 144.591078 
L 386.737498 144.591078 
L 386.737498 142.936272 
L 384.020499 142.936272 
z
" clip-path="url(#p89d4040db7)" style="fill: #1f77b4; stroke: #808080; stroke-linejoin: miter"/>
   </g>
   <g id="patch_71">
    <path d="M 388.54883 144.591078 
L 391.265829 144.591078 
L 391.265829 144.591078 
L 388.54883 144.591078 
z
" clip-path="url(#p89d4040db7)" style="fill: #1f77b4; stroke: #808080; stroke-linejoin: miter"/>
   </g>
   <g id="patch_72">
    <path d="M 393.077162 144.591078 
L 395.794161 144.591078 
L 395.794161 144.591078 
L 393.077162 144.591078 
z
" clip-path="url(#p89d4040db7)" style="fill: #1f77b4; stroke: #808080; stroke-linejoin: miter"/>
   </g>
   <g id="patch_73">
    <path d="M 397.605494 144.591078 
L 400.322493 144.591078 
L 400.322493 144.591078 
L 397.605494 144.591078 
z
" clip-path="url(#p89d4040db7)" style="fill: #1f77b4; stroke: #808080; stroke-linejoin: miter"/>
   </g>
   <g id="patch_74">
    <path d="M 402.133825 144.591078 
L 404.850825 144.591078 
L 404.850825 144.591078 
L 402.133825 144.591078 
z
" clip-path="url(#p89d4040db7)" style="fill: #1f77b4; stroke: #808080; stroke-linejoin: miter"/>
   </g>
   <g id="patch_75">
    <path d="M 406.662157 144.591078 
L 409.379156 144.591078 
L 409.379156 144.591078 
L 406.662157 144.591078 
z
" clip-path="url(#p89d4040db7)" style="fill: #1f77b4; stroke: #808080; stroke-linejoin: miter"/>
   </g>
   <g id="patch_76">
    <path d="M 411.190489 144.591078 
L 413.907488 144.591078 
L 413.907488 144.591078 
L 411.190489 144.591078 
z
" clip-path="url(#p89d4040db7)" style="fill: #1f77b4; stroke: #808080; stroke-linejoin: miter"/>
   </g>
   <g id="patch_77">
    <path d="M 415.718821 144.591078 
L 418.43582 144.591078 
L 418.43582 144.591078 
L 415.718821 144.591078 
z
" clip-path="url(#p89d4040db7)" style="fill: #1f77b4; stroke: #808080; stroke-linejoin: miter"/>
   </g>
   <g id="patch_78">
    <path d="M 420.247152 144.591078 
L 422.964151 144.591078 
L 422.964151 144.591078 
L 420.247152 144.591078 
z
" clip-path="url(#p89d4040db7)" style="fill: #1f77b4; stroke: #808080; stroke-linejoin: miter"/>
   </g>
   <g id="patch_79">
    <path d="M 424.775484 144.591078 
L 427.492483 144.591078 
L 427.492483 144.591078 
L 424.775484 144.591078 
z
" clip-path="url(#p89d4040db7)" style="fill: #1f77b4; stroke: #808080; stroke-linejoin: miter"/>
   </g>
   <g id="patch_80">
    <path d="M 429.303816 144.591078 
L 432.020815 144.591078 
L 432.020815 144.591078 
L 429.303816 144.591078 
z
" clip-path="url(#p89d4040db7)" style="fill: #1f77b4; stroke: #808080; stroke-linejoin: miter"/>
   </g>
   <g id="patch_81">
    <path d="M 433.832148 144.591078 
L 436.549147 144.591078 
L 436.549147 144.591078 
L 433.832148 144.591078 
z
" clip-path="url(#p89d4040db7)" style="fill: #1f77b4; stroke: #808080; stroke-linejoin: miter"/>
   </g>
   <g id="patch_82">
    <path d="M 438.360479 144.591078 
L 441.077478 144.591078 
L 441.077478 144.591078 
L 438.360479 144.591078 
z
" clip-path="url(#p89d4040db7)" style="fill: #1f77b4; stroke: #808080; stroke-linejoin: miter"/>
   </g>
   <g id="patch_83">
    <path d="M 442.888811 144.591078 
L 445.60581 144.591078 
L 445.60581 144.591078 
L 442.888811 144.591078 
z
" clip-path="url(#p89d4040db7)" style="fill: #1f77b4; stroke: #808080; stroke-linejoin: miter"/>
   </g>
   <g id="patch_84">
    <path d="M 447.417143 144.591078 
L 450.134142 144.591078 
L 450.134142 144.591078 
L 447.417143 144.591078 
z
" clip-path="url(#p89d4040db7)" style="fill: #1f77b4; stroke: #808080; stroke-linejoin: miter"/>
   </g>
   <g id="patch_85">
    <path d="M 451.945474 144.591078 
L 454.662474 144.591078 
L 454.662474 144.591078 
L 451.945474 144.591078 
z
" clip-path="url(#p89d4040db7)" style="fill: #1f77b4; stroke: #808080; stroke-linejoin: miter"/>
   </g>
   <g id="patch_86">
    <path d="M 456.473806 144.591078 
L 459.190805 144.591078 
L 459.190805 144.591078 
L 456.473806 144.591078 
z
" clip-path="url(#p89d4040db7)" style="fill: #1f77b4; stroke: #808080; stroke-linejoin: miter"/>
   </g>
   <g id="patch_87">
    <path d="M 461.002138 144.591078 
L 463.719137 144.591078 
L 463.719137 144.591078 
L 461.002138 144.591078 
z
" clip-path="url(#p89d4040db7)" style="fill: #1f77b4; stroke: #808080; stroke-linejoin: miter"/>
   </g>
   <g id="patch_88">
    <path d="M 465.53047 144.591078 
L 468.247469 144.591078 
L 468.247469 144.591078 
L 465.53047 144.591078 
z
" clip-path="url(#p89d4040db7)" style="fill: #1f77b4; stroke: #808080; stroke-linejoin: miter"/>
   </g>
   <g id="patch_89">
    <path d="M 470.058801 144.591078 
L 472.7758 144.591078 
L 472.7758 144.591078 
L 470.058801 144.591078 
z
" clip-path="url(#p89d4040db7)" style="fill: #1f77b4; stroke: #808080; stroke-linejoin: miter"/>
   </g>
   <g id="patch_90">
    <path d="M 474.587133 144.591078 
L 477.304132 144.591078 
L 477.304132 144.591078 
L 474.587133 144.591078 
z
" clip-path="url(#p89d4040db7)" style="fill: #1f77b4; stroke: #808080; stroke-linejoin: miter"/>
   </g>
   <g id="patch_91">
    <path d="M 479.115465 144.591078 
L 481.832464 144.591078 
L 481.832464 144.591078 
L 479.115465 144.591078 
z
" clip-path="url(#p89d4040db7)" style="fill: #1f77b4; stroke: #808080; stroke-linejoin: miter"/>
   </g>
   <g id="patch_92">
    <path d="M 483.643797 144.591078 
L 486.360796 144.591078 
L 486.360796 144.591078 
L 483.643797 144.591078 
z
" clip-path="url(#p89d4040db7)" style="fill: #1f77b4; stroke: #808080; stroke-linejoin: miter"/>
   </g>
   <g id="patch_93">
    <path d="M 488.172128 144.591078 
L 490.889127 144.591078 
L 490.889127 144.591078 
L 488.172128 144.591078 
z
" clip-path="url(#p89d4040db7)" style="fill: #1f77b4; stroke: #808080; stroke-linejoin: miter"/>
   </g>
   <g id="patch_94">
    <path d="M 492.70046 144.591078 
L 495.417459 144.591078 
L 495.417459 144.591078 
L 492.70046 144.591078 
z
" clip-path="url(#p89d4040db7)" style="fill: #1f77b4; stroke: #808080; stroke-linejoin: miter"/>
   </g>
   <g id="patch_95">
    <path d="M 497.228792 144.591078 
L 499.945791 144.591078 
L 499.945791 144.591078 
L 497.228792 144.591078 
z
" clip-path="url(#p89d4040db7)" style="fill: #1f77b4; stroke: #808080; stroke-linejoin: miter"/>
   </g>
   <g id="patch_96">
    <path d="M 501.757124 144.591078 
L 504.474123 144.591078 
L 504.474123 144.591078 
L 501.757124 144.591078 
z
" clip-path="url(#p89d4040db7)" style="fill: #1f77b4; stroke: #808080; stroke-linejoin: miter"/>
   </g>
   <g id="patch_97">
    <path d="M 506.285455 144.591078 
L 509.002454 144.591078 
L 509.002454 144.591078 
L 506.285455 144.591078 
z
" clip-path="url(#p89d4040db7)" style="fill: #1f77b4; stroke: #808080; stroke-linejoin: miter"/>
   </g>
   <g id="patch_98">
    <path d="M 510.813787 144.591078 
L 513.530786 144.591078 
L 513.530786 144.591078 
L 510.813787 144.591078 
z
" clip-path="url(#p89d4040db7)" style="fill: #1f77b4; stroke: #808080; stroke-linejoin: miter"/>
   </g>
   <g id="patch_99">
    <path d="M 515.342119 144.591078 
L 518.059118 144.591078 
L 518.059118 144.591078 
L 515.342119 144.591078 
z
" clip-path="url(#p89d4040db7)" style="fill: #1f77b4; stroke: #808080; stroke-linejoin: miter"/>
   </g>
   <g id="patch_100">
    <path d="M 519.87045 144.591078 
L 522.587449 144.591078 
L 522.587449 144.591078 
L 519.87045 144.591078 
z
" clip-path="url(#p89d4040db7)" style="fill: #1f77b4; stroke: #808080; stroke-linejoin: miter"/>
   </g>
   <g id="patch_101">
    <path d="M 524.398782 144.591078 
L 527.115781 144.591078 
L 527.115781 144.591078 
L 524.398782 144.591078 
z
" clip-path="url(#p89d4040db7)" style="fill: #1f77b4; stroke: #808080; stroke-linejoin: miter"/>
   </g>
   <g id="patch_102">
    <path d="M 528.927114 144.591078 
L 531.644113 144.591078 
L 531.644113 144.591078 
L 528.927114 144.591078 
z
" clip-path="url(#p89d4040db7)" style="fill: #1f77b4; stroke: #808080; stroke-linejoin: miter"/>
   </g>
   <g id="patch_103">
    <path d="M 533.455446 144.591078 
L 536.172445 144.591078 
L 536.172445 144.591078 
L 533.455446 144.591078 
z
" clip-path="url(#p89d4040db7)" style="fill: #1f77b4; stroke: #808080; stroke-linejoin: miter"/>
   </g>
   <g id="patch_104">
    <path d="M 537.983777 144.591078 
L 540.700776 144.591078 
L 540.700776 144.591078 
L 537.983777 144.591078 
z
" clip-path="url(#p89d4040db7)" style="fill: #1f77b4; stroke: #808080; stroke-linejoin: miter"/>
   </g>
   <g id="patch_105">
    <path d="M 542.512109 144.591078 
L 545.229108 144.591078 
L 545.229108 144.591078 
L 542.512109 144.591078 
z
" clip-path="url(#p89d4040db7)" style="fill: #1f77b4; stroke: #808080; stroke-linejoin: miter"/>
   </g>
   <g id="patch_106">
    <path d="M 547.040441 144.591078 
L 549.75744 144.591078 
L 549.75744 144.591078 
L 547.040441 144.591078 
z
" clip-path="url(#p89d4040db7)" style="fill: #1f77b4; stroke: #808080; stroke-linejoin: miter"/>
   </g>
   <g id="patch_107">
    <path d="M 551.568773 144.591078 
L 554.285772 144.591078 
L 554.285772 144.591078 
L 551.568773 144.591078 
z
" clip-path="url(#p89d4040db7)" style="fill: #1f77b4; stroke: #808080; stroke-linejoin: miter"/>
   </g>
   <g id="patch_108">
    <path d="M 556.097104 144.591078 
L 558.814103 144.591078 
L 558.814103 144.591078 
L 556.097104 144.591078 
z
" clip-path="url(#p89d4040db7)" style="fill: #1f77b4; stroke: #808080; stroke-linejoin: miter"/>
   </g>
   <g id="patch_109">
    <path d="M 560.625436 144.591078 
L 563.342435 144.591078 
L 563.342435 144.591078 
L 560.625436 144.591078 
z
" clip-path="url(#p89d4040db7)" style="fill: #1f77b4; stroke: #808080; stroke-linejoin: miter"/>
   </g>
   <g id="patch_110">
    <path d="M 565.153768 144.591078 
L 567.870767 144.591078 
L 567.870767 144.591078 
L 565.153768 144.591078 
z
" clip-path="url(#p89d4040db7)" style="fill: #1f77b4; stroke: #808080; stroke-linejoin: miter"/>
   </g>
   <g id="patch_111">
    <path d="M 569.682099 144.591078 
L 572.399098 144.591078 
L 572.399098 144.591078 
L 569.682099 144.591078 
z
" clip-path="url(#p89d4040db7)" style="fill: #1f77b4; stroke: #808080; stroke-linejoin: miter"/>
   </g>
   <g id="patch_112">
    <path d="M 574.210431 144.591078 
L 576.92743 144.591078 
L 576.92743 144.591078 
L 574.210431 144.591078 
z
" clip-path="url(#p89d4040db7)" style="fill: #1f77b4; stroke: #808080; stroke-linejoin: miter"/>
   </g>
   <g id="patch_113">
    <path d="M 578.738763 144.591078 
L 581.455762 144.591078 
L 581.455762 144.591078 
L 578.738763 144.591078 
z
" clip-path="url(#p89d4040db7)" style="fill: #1f77b4; stroke: #808080; stroke-linejoin: miter"/>
   </g>
   <g id="patch_114">
    <path d="M 583.267095 144.591078 
L 585.984094 144.591078 
L 585.984094 144.591078 
L 583.267095 144.591078 
z
" clip-path="url(#p89d4040db7)" style="fill: #1f77b4; stroke: #808080; stroke-linejoin: miter"/>
   </g>
   <g id="patch_115">
    <path d="M 587.795426 144.591078 
L 590.512425 144.591078 
L 590.512425 144.591078 
L 587.795426 144.591078 
z
" clip-path="url(#p89d4040db7)" style="fill: #1f77b4; stroke: #808080; stroke-linejoin: miter"/>
   </g>
   <g id="patch_116">
    <path d="M 592.323758 144.591078 
L 595.040757 144.591078 
L 595.040757 144.591078 
L 592.323758 144.591078 
z
" clip-path="url(#p89d4040db7)" style="fill: #1f77b4; stroke: #808080; stroke-linejoin: miter"/>
   </g>
   <g id="patch_117">
    <path d="M 596.85209 144.591078 
L 599.569089 144.591078 
L 599.569089 144.591078 
L 596.85209 144.591078 
z
" clip-path="url(#p89d4040db7)" style="fill: #1f77b4; stroke: #808080; stroke-linejoin: miter"/>
   </g>
   <g id="patch_118">
    <path d="M 601.380422 144.591078 
L 604.097421 144.591078 
L 604.097421 144.591078 
L 601.380422 144.591078 
z
" clip-path="url(#p89d4040db7)" style="fill: #1f77b4; stroke: #808080; stroke-linejoin: miter"/>
   </g>
   <g id="patch_119">
    <path d="M 605.908753 144.591078 
L 608.625752 144.591078 
L 608.625752 144.591078 
L 605.908753 144.591078 
z
" clip-path="url(#p89d4040db7)" style="fill: #1f77b4; stroke: #808080; stroke-linejoin: miter"/>
   </g>
   <g id="patch_120">
    <path d="M 610.437085 144.591078 
L 613.154084 144.591078 
L 613.154084 144.591078 
L 610.437085 144.591078 
z
" clip-path="url(#p89d4040db7)" style="fill: #1f77b4; stroke: #808080; stroke-linejoin: miter"/>
   </g>
   <g id="patch_121">
    <path d="M 614.965417 144.591078 
L 617.682416 144.591078 
L 617.682416 144.591078 
L 614.965417 144.591078 
z
" clip-path="url(#p89d4040db7)" style="fill: #1f77b4; stroke: #808080; stroke-linejoin: miter"/>
   </g>
   <g id="patch_122">
    <path d="M 619.493748 144.591078 
L 622.210747 144.591078 
L 622.210747 144.591078 
L 619.493748 144.591078 
z
" clip-path="url(#p89d4040db7)" style="fill: #1f77b4; stroke: #808080; stroke-linejoin: miter"/>
   </g>
   <g id="patch_123">
    <path d="M 624.02208 144.591078 
L 626.739079 144.591078 
L 626.739079 144.591078 
L 624.02208 144.591078 
z
" clip-path="url(#p89d4040db7)" style="fill: #1f77b4; stroke: #808080; stroke-linejoin: miter"/>
   </g>
   <g id="patch_124">
    <path d="M 628.550412 144.591078 
L 631.267411 144.591078 
L 631.267411 144.591078 
L 628.550412 144.591078 
z
" clip-path="url(#p89d4040db7)" style="fill: #1f77b4; stroke: #808080; stroke-linejoin: miter"/>
   </g>
   <g id="patch_125">
    <path d="M 633.078744 144.591078 
L 635.795743 144.591078 
L 635.795743 144.591078 
L 633.078744 144.591078 
z
" clip-path="url(#p89d4040db7)" style="fill: #1f77b4; stroke: #808080; stroke-linejoin: miter"/>
   </g>
   <g id="patch_126">
    <path d="M 637.607075 144.591078 
L 640.324074 144.591078 
L 640.324074 144.591078 
L 637.607075 144.591078 
z
" clip-path="url(#p89d4040db7)" style="fill: #1f77b4; stroke: #808080; stroke-linejoin: miter"/>
   </g>
   <g id="patch_127">
    <path d="M 642.135407 144.591078 
L 644.852406 144.591078 
L 644.852406 144.591078 
L 642.135407 144.591078 
z
" clip-path="url(#p89d4040db7)" style="fill: #1f77b4; stroke: #808080; stroke-linejoin: miter"/>
   </g>
   <g id="patch_128">
    <path d="M 646.663739 144.591078 
L 649.380738 144.591078 
L 649.380738 144.591078 
L 646.663739 144.591078 
z
" clip-path="url(#p89d4040db7)" style="fill: #1f77b4; stroke: #808080; stroke-linejoin: miter"/>
   </g>
   <g id="patch_129">
    <path d="M 651.192071 144.591078 
L 653.90907 144.591078 
L 653.90907 144.591078 
L 651.192071 144.591078 
z
" clip-path="url(#p89d4040db7)" style="fill: #1f77b4; stroke: #808080; stroke-linejoin: miter"/>
   </g>
   <g id="patch_130">
    <path d="M 655.720402 144.591078 
L 658.437401 144.591078 
L 658.437401 144.591078 
L 655.720402 144.591078 
z
" clip-path="url(#p89d4040db7)" style="fill: #1f77b4; stroke: #808080; stroke-linejoin: miter"/>
   </g>
   <g id="patch_131">
    <path d="M 660.248734 144.591078 
L 662.965733 144.591078 
L 662.965733 144.591078 
L 660.248734 144.591078 
z
" clip-path="url(#p89d4040db7)" style="fill: #1f77b4; stroke: #808080; stroke-linejoin: miter"/>
   </g>
   <g id="patch_132">
    <path d="M 664.777066 144.591078 
L 667.494065 144.591078 
L 667.494065 144.591078 
L 664.777066 144.591078 
z
" clip-path="url(#p89d4040db7)" style="fill: #1f77b4; stroke: #808080; stroke-linejoin: miter"/>
   </g>
   <g id="patch_133">
    <path d="M 669.305397 144.591078 
L 672.022397 144.591078 
L 672.022397 144.591078 
L 669.305397 144.591078 
z
" clip-path="url(#p89d4040db7)" style="fill: #1f77b4; stroke: #808080; stroke-linejoin: miter"/>
   </g>
   <g id="patch_134">
    <path d="M 673.833729 144.591078 
L 676.550728 144.591078 
L 676.550728 144.591078 
L 673.833729 144.591078 
z
" clip-path="url(#p89d4040db7)" style="fill: #1f77b4; stroke: #808080; stroke-linejoin: miter"/>
   </g>
   <g id="patch_135">
    <path d="M 676.550728 144.591078 
L 679.267727 144.591078 
L 679.267727 144.591078 
L 676.550728 144.591078 
z
" clip-path="url(#p89d4040db7)" style="fill: #1f77b4; stroke: #808080; stroke-linejoin: miter"/>
   </g>
   <g id="matplotlib.axis_1">
    <g id="xtick_1">
     <g id="line2d_1">
      <path d="M 107.33943 144.591078 
L 107.33943 10.8 
" clip-path="url(#p89d4040db7)" style="fill: none; stroke: #b0b0b0; stroke-width: 0.8; stroke-linecap: square"/>
     </g>
     <g id="line2d_2">
      <defs>
       <path id="m40bc4c8ff8" d="M 0 0 
L 0 3.5 
" style="stroke: #000000; stroke-width: 0.8"/>
      </defs>
      <g>
       <use xlink:href="#m40bc4c8ff8" x="107.33943" y="144.591078" style="stroke: #000000; stroke-width: 0.8"/>
      </g>
     </g>
     <g id="text_1">
      <!-- −300 -->
      <g transform="translate(82.268075 181.345247) rotate(-45) scale(0.12 -0.12)">
       <defs>
        <path id="DejaVuSans-2212" d="M 678 2272 
L 4684 2272 
L 4684 1741 
L 678 1741 
L 678 2272 
z
" transform="scale(0.015625)"/>
        <path id="DejaVuSans-33" d="M 2597 2516 
Q 3050 2419 3304 2112 
Q 3559 1806 3559 1356 
Q 3559 666 3084 287 
Q 2609 -91 1734 -91 
Q 1441 -91 1130 -33 
Q 819 25 488 141 
L 488 750 
Q 750 597 1062 519 
Q 1375 441 1716 441 
Q 2309 441 2620 675 
Q 2931 909 2931 1356 
Q 2931 1769 2642 2001 
Q 2353 2234 1838 2234 
L 1294 2234 
L 1294 2753 
L 1863 2753 
Q 2328 2753 2575 2939 
Q 2822 3125 2822 3475 
Q 2822 3834 2567 4026 
Q 2313 4219 1838 4219 
Q 1578 4219 1281 4162 
Q 984 4106 628 3988 
L 628 4550 
Q 988 4650 1302 4700 
Q 1616 4750 1894 4750 
Q 2613 4750 3031 4423 
Q 3450 4097 3450 3541 
Q 3450 3153 3228 2886 
Q 3006 2619 2597 2516 
z
" transform="scale(0.015625)"/>
        <path id="DejaVuSans-30" d="M 2034 4250 
Q 1547 4250 1301 3770 
Q 1056 3291 1056 2328 
Q 1056 1369 1301 889 
Q 1547 409 2034 409 
Q 2525 409 2770 889 
Q 3016 1369 3016 2328 
Q 3016 3291 2770 3770 
Q 2525 4250 2034 4250 
z
M 2034 4750 
Q 2819 4750 3233 4129 
Q 3647 3509 3647 2328 
Q 3647 1150 3233 529 
Q 2819 -91 2034 -91 
Q 1250 -91 836 529 
Q 422 1150 422 2328 
Q 422 3509 836 4129 
Q 1250 4750 2034 4750 
z
" transform="scale(0.015625)"/>
       </defs>
       <use xlink:href="#DejaVuSans-2212"/>
       <use xlink:href="#DejaVuSans-33" transform="translate(83.789062 0)"/>
       <use xlink:href="#DejaVuSans-30" transform="translate(147.412109 0)"/>
       <use xlink:href="#DejaVuSans-30" transform="translate(211.035156 0)"/>
      </g>
     </g>
    </g>
    <g id="xtick_2">
     <g id="line2d_3">
      <path d="M 197.906065 144.591078 
L 197.906065 10.8 
" clip-path="url(#p89d4040db7)" style="fill: none; stroke: #b0b0b0; stroke-width: 0.8; stroke-linecap: square"/>
     </g>
     <g id="line2d_4">
      <g>
       <use xlink:href="#m40bc4c8ff8" x="197.906065" y="144.591078" style="stroke: #000000; stroke-width: 0.8"/>
      </g>
     </g>
     <g id="text_2">
      <!-- −200 -->
      <g transform="translate(172.83471 181.345247) rotate(-45) scale(0.12 -0.12)">
       <defs>
        <path id="DejaVuSans-32" d="M 1228 531 
L 3431 531 
L 3431 0 
L 469 0 
L 469 531 
Q 828 903 1448 1529 
Q 2069 2156 2228 2338 
Q 2531 2678 2651 2914 
Q 2772 3150 2772 3378 
Q 2772 3750 2511 3984 
Q 2250 4219 1831 4219 
Q 1534 4219 1204 4116 
Q 875 4013 500 3803 
L 500 4441 
Q 881 4594 1212 4672 
Q 1544 4750 1819 4750 
Q 2544 4750 2975 4387 
Q 3406 4025 3406 3419 
Q 3406 3131 3298 2873 
Q 3191 2616 2906 2266 
Q 2828 2175 2409 1742 
Q 1991 1309 1228 531 
z
" transform="scale(0.015625)"/>
       </defs>
       <use xlink:href="#DejaVuSans-2212"/>
       <use xlink:href="#DejaVuSans-32" transform="translate(83.789062 0)"/>
       <use xlink:href="#DejaVuSans-30" transform="translate(147.412109 0)"/>
       <use xlink:href="#DejaVuSans-30" transform="translate(211.035156 0)"/>
      </g>
     </g>
    </g>
    <g id="xtick_3">
     <g id="line2d_5">
      <path d="M 288.472699 144.591078 
L 288.472699 10.8 
" clip-path="url(#p89d4040db7)" style="fill: none; stroke: #b0b0b0; stroke-width: 0.8; stroke-linecap: square"/>
     </g>
     <g id="line2d_6">
      <g>
       <use xlink:href="#m40bc4c8ff8" x="288.472699" y="144.591078" style="stroke: #000000; stroke-width: 0.8"/>
      </g>
     </g>
     <g id="text_3">
      <!-- −100 -->
      <g transform="translate(263.401344 181.345247) rotate(-45) scale(0.12 -0.12)">
       <defs>
        <path id="DejaVuSans-31" d="M 794 531 
L 1825 531 
L 1825 4091 
L 703 3866 
L 703 4441 
L 1819 4666 
L 2450 4666 
L 2450 531 
L 3481 531 
L 3481 0 
L 794 0 
L 794 531 
z
" transform="scale(0.015625)"/>
       </defs>
       <use xlink:href="#DejaVuSans-2212"/>
       <use xlink:href="#DejaVuSans-31" transform="translate(83.789062 0)"/>
       <use xlink:href="#DejaVuSans-30" transform="translate(147.412109 0)"/>
       <use xlink:href="#DejaVuSans-30" transform="translate(211.035156 0)"/>
      </g>
     </g>
    </g>
    <g id="xtick_4">
     <g id="line2d_7">
      <path d="M 379.039334 144.591078 
L 379.039334 10.8 
" clip-path="url(#p89d4040db7)" style="fill: none; stroke: #b0b0b0; stroke-width: 0.8; stroke-linecap: square"/>
     </g>
     <g id="line2d_8">
      <g>
       <use xlink:href="#m40bc4c8ff8" x="379.039334" y="144.591078" style="stroke: #000000; stroke-width: 0.8"/>
      </g>
     </g>
     <g id="text_4">
      <!-- 0 -->
      <g transform="translate(371.8759 163.437326) rotate(-45) scale(0.12 -0.12)">
       <use xlink:href="#DejaVuSans-30"/>
      </g>
     </g>
    </g>
    <g id="xtick_5">
     <g id="line2d_9">
      <path d="M 469.605968 144.591078 
L 469.605968 10.8 
" clip-path="url(#p89d4040db7)" style="fill: none; stroke: #b0b0b0; stroke-width: 0.8; stroke-linecap: square"/>
     </g>
     <g id="line2d_10">
      <g>
       <use xlink:href="#m40bc4c8ff8" x="469.605968" y="144.591078" style="stroke: #000000; stroke-width: 0.8"/>
      </g>
     </g>
     <g id="text_5">
      <!-- 100 -->
      <g transform="translate(451.645014 174.234847) rotate(-45) scale(0.12 -0.12)">
       <use xlink:href="#DejaVuSans-31"/>
       <use xlink:href="#DejaVuSans-30" transform="translate(63.623047 0)"/>
       <use xlink:href="#DejaVuSans-30" transform="translate(127.246094 0)"/>
      </g>
     </g>
    </g>
    <g id="xtick_6">
     <g id="line2d_11">
      <path d="M 560.172603 144.591078 
L 560.172603 10.8 
" clip-path="url(#p89d4040db7)" style="fill: none; stroke: #b0b0b0; stroke-width: 0.8; stroke-linecap: square"/>
     </g>
     <g id="line2d_12">
      <g>
       <use xlink:href="#m40bc4c8ff8" x="560.172603" y="144.591078" style="stroke: #000000; stroke-width: 0.8"/>
      </g>
     </g>
     <g id="text_6">
      <!-- 200 -->
      <g transform="translate(542.211649 174.234847) rotate(-45) scale(0.12 -0.12)">
       <use xlink:href="#DejaVuSans-32"/>
       <use xlink:href="#DejaVuSans-30" transform="translate(63.623047 0)"/>
       <use xlink:href="#DejaVuSans-30" transform="translate(127.246094 0)"/>
      </g>
     </g>
    </g>
    <g id="xtick_7">
     <g id="line2d_13">
      <path d="M 650.739237 144.591078 
L 650.739237 10.8 
" clip-path="url(#p89d4040db7)" style="fill: none; stroke: #b0b0b0; stroke-width: 0.8; stroke-linecap: square"/>
     </g>
     <g id="line2d_14">
      <g>
       <use xlink:href="#m40bc4c8ff8" x="650.739237" y="144.591078" style="stroke: #000000; stroke-width: 0.8"/>
      </g>
     </g>
     <g id="text_7">
      <!-- 300 -->
      <g transform="translate(632.778283 174.234847) rotate(-45) scale(0.12 -0.12)">
       <use xlink:href="#DejaVuSans-33"/>
       <use xlink:href="#DejaVuSans-30" transform="translate(63.623047 0)"/>
       <use xlink:href="#DejaVuSans-30" transform="translate(127.246094 0)"/>
      </g>
     </g>
    </g>
    <g id="text_8">
     <!-- Exponent: $10^x$ -->
     <g transform="translate(330.035 197.889921) scale(0.14 -0.14)">
      <defs>
       <path id="DejaVuSans-45" d="M 628 4666 
L 3578 4666 
L 3578 4134 
L 1259 4134 
L 1259 2753 
L 3481 2753 
L 3481 2222 
L 1259 2222 
L 1259 531 
L 3634 531 
L 3634 0 
L 628 0 
L 628 4666 
z
" transform="scale(0.015625)"/>
       <path id="DejaVuSans-78" d="M 3513 3500 
L 2247 1797 
L 3578 0 
L 2900 0 
L 1881 1375 
L 863 0 
L 184 0 
L 1544 1831 
L 300 3500 
L 978 3500 
L 1906 2253 
L 2834 3500 
L 3513 3500 
z
" transform="scale(0.015625)"/>
       <path id="DejaVuSans-70" d="M 1159 525 
L 1159 -1331 
L 581 -1331 
L 581 3500 
L 1159 3500 
L 1159 2969 
Q 1341 3281 1617 3432 
Q 1894 3584 2278 3584 
Q 2916 3584 3314 3078 
Q 3713 2572 3713 1747 
Q 3713 922 3314 415 
Q 2916 -91 2278 -91 
Q 1894 -91 1617 61 
Q 1341 213 1159 525 
z
M 3116 1747 
Q 3116 2381 2855 2742 
Q 2594 3103 2138 3103 
Q 1681 3103 1420 2742 
Q 1159 2381 1159 1747 
Q 1159 1113 1420 752 
Q 1681 391 2138 391 
Q 2594 391 2855 752 
Q 3116 1113 3116 1747 
z
" transform="scale(0.015625)"/>
       <path id="DejaVuSans-6f" d="M 1959 3097 
Q 1497 3097 1228 2736 
Q 959 2375 959 1747 
Q 959 1119 1226 758 
Q 1494 397 1959 397 
Q 2419 397 2687 759 
Q 2956 1122 2956 1747 
Q 2956 2369 2687 2733 
Q 2419 3097 1959 3097 
z
M 1959 3584 
Q 2709 3584 3137 3096 
Q 3566 2609 3566 1747 
Q 3566 888 3137 398 
Q 2709 -91 1959 -91 
Q 1206 -91 779 398 
Q 353 888 353 1747 
Q 353 2609 779 3096 
Q 1206 3584 1959 3584 
z
" transform="scale(0.015625)"/>
       <path id="DejaVuSans-6e" d="M 3513 2113 
L 3513 0 
L 2938 0 
L 2938 2094 
Q 2938 2591 2744 2837 
Q 2550 3084 2163 3084 
Q 1697 3084 1428 2787 
Q 1159 2491 1159 1978 
L 1159 0 
L 581 0 
L 581 3500 
L 1159 3500 
L 1159 2956 
Q 1366 3272 1645 3428 
Q 1925 3584 2291 3584 
Q 2894 3584 3203 3211 
Q 3513 2838 3513 2113 
z
" transform="scale(0.015625)"/>
       <path id="DejaVuSans-65" d="M 3597 1894 
L 3597 1613 
L 953 1613 
Q 991 1019 1311 708 
Q 1631 397 2203 397 
Q 2534 397 2845 478 
Q 3156 559 3463 722 
L 3463 178 
Q 3153 47 2828 -22 
Q 2503 -91 2169 -91 
Q 1331 -91 842 396 
Q 353 884 353 1716 
Q 353 2575 817 3079 
Q 1281 3584 2069 3584 
Q 2775 3584 3186 3129 
Q 3597 2675 3597 1894 
z
M 3022 2063 
Q 3016 2534 2758 2815 
Q 2500 3097 2075 3097 
Q 1594 3097 1305 2825 
Q 1016 2553 972 2059 
L 3022 2063 
z
" transform="scale(0.015625)"/>
       <path id="DejaVuSans-74" d="M 1172 4494 
L 1172 3500 
L 2356 3500 
L 2356 3053 
L 1172 3053 
L 1172 1153 
Q 1172 725 1289 603 
Q 1406 481 1766 481 
L 2356 481 
L 2356 0 
L 1766 0 
Q 1100 0 847 248 
Q 594 497 594 1153 
L 594 3053 
L 172 3053 
L 172 3500 
L 594 3500 
L 594 4494 
L 1172 4494 
z
" transform="scale(0.015625)"/>
       <path id="DejaVuSans-3a" d="M 750 794 
L 1409 794 
L 1409 0 
L 750 0 
L 750 794 
z
M 750 3309 
L 1409 3309 
L 1409 2516 
L 750 2516 
L 750 3309 
z
" transform="scale(0.015625)"/>
       <path id="DejaVuSans-20" transform="scale(0.015625)"/>
       <path id="DejaVuSans-Oblique-78" d="M 3841 3500 
L 2234 1784 
L 3219 0 
L 2559 0 
L 1819 1388 
L 531 0 
L -166 0 
L 1556 1844 
L 641 3500 
L 1300 3500 
L 1972 2234 
L 3144 3500 
L 3841 3500 
z
" transform="scale(0.015625)"/>
      </defs>
      <use xlink:href="#DejaVuSans-45" transform="translate(0 0.4375)"/>
      <use xlink:href="#DejaVuSans-78" transform="translate(63.183594 0.4375)"/>
      <use xlink:href="#DejaVuSans-70" transform="translate(122.363281 0.4375)"/>
      <use xlink:href="#DejaVuSans-6f" transform="translate(185.839844 0.4375)"/>
      <use xlink:href="#DejaVuSans-6e" transform="translate(247.021484 0.4375)"/>
      <use xlink:href="#DejaVuSans-65" transform="translate(310.400391 0.4375)"/>
      <use xlink:href="#DejaVuSans-6e" transform="translate(371.923828 0.4375)"/>
      <use xlink:href="#DejaVuSans-74" transform="translate(435.302734 0.4375)"/>
      <use xlink:href="#DejaVuSans-3a" transform="translate(474.511719 0.4375)"/>
      <use xlink:href="#DejaVuSans-20" transform="translate(508.203125 0.4375)"/>
      <use xlink:href="#DejaVuSans-31" transform="translate(539.990234 0.4375)"/>
      <use xlink:href="#DejaVuSans-30" transform="translate(603.613281 0.4375)"/>
      <use xlink:href="#DejaVuSans-Oblique-78" transform="translate(668.193359 38.71875) scale(0.7)"/>
     </g>
    </g>
   </g>
   <g id="matplotlib.axis_2">
    <g id="ytick_1">
     <g id="line2d_15">
      <path d="M 50.69 144.591078 
L 709.2 144.591078 
" clip-path="url(#p89d4040db7)" style="fill: none; stroke: #b0b0b0; stroke-width: 0.8; stroke-linecap: square"/>
     </g>
     <g id="line2d_16">
      <defs>
       <path id="mb8241e7d4a" d="M 0 0 
L -3.5 0 
" style="stroke: #000000; stroke-width: 0.8"/>
      </defs>
      <g>
       <use xlink:href="#mb8241e7d4a" x="50.69" y="144.591078" style="stroke: #000000; stroke-width: 0.8"/>
      </g>
     </g>
     <g id="text_9">
      <!-- 0.0 -->
      <g transform="translate(24.60625 149.15014) scale(0.12 -0.12)">
       <defs>
        <path id="DejaVuSans-2e" d="M 684 794 
L 1344 794 
L 1344 0 
L 684 0 
L 684 794 
z
" transform="scale(0.015625)"/>
       </defs>
       <use xlink:href="#DejaVuSans-30"/>
       <use xlink:href="#DejaVuSans-2e" transform="translate(63.623047 0)"/>
       <use xlink:href="#DejaVuSans-30" transform="translate(95.410156 0)"/>
      </g>
     </g>
    </g>
    <g id="ytick_2">
     <g id="line2d_17">
      <path d="M 50.69 108.884038 
L 709.2 108.884038 
" clip-path="url(#p89d4040db7)" style="fill: none; stroke: #b0b0b0; stroke-width: 0.8; stroke-linecap: square"/>
     </g>
     <g id="line2d_18">
      <g>
       <use xlink:href="#mb8241e7d4a" x="50.69" y="108.884038" style="stroke: #000000; stroke-width: 0.8"/>
      </g>
     </g>
     <g id="text_10">
      <!-- 20.0 -->
      <g transform="translate(16.97125 113.443101) scale(0.12 -0.12)">
       <use xlink:href="#DejaVuSans-32"/>
       <use xlink:href="#DejaVuSans-30" transform="translate(63.623047 0)"/>
       <use xlink:href="#DejaVuSans-2e" transform="translate(127.246094 0)"/>
       <use xlink:href="#DejaVuSans-30" transform="translate(159.033203 0)"/>
      </g>
     </g>
    </g>
    <g id="ytick_3">
     <g id="line2d_19">
      <path d="M 50.69 73.176999 
L 709.2 73.176999 
" clip-path="url(#p89d4040db7)" style="fill: none; stroke: #b0b0b0; stroke-width: 0.8; stroke-linecap: square"/>
     </g>
     <g id="line2d_20">
      <g>
       <use xlink:href="#mb8241e7d4a" x="50.69" y="73.176999" style="stroke: #000000; stroke-width: 0.8"/>
      </g>
     </g>
     <g id="text_11">
      <!-- 40.0 -->
      <g transform="translate(16.97125 77.736061) scale(0.12 -0.12)">
       <defs>
        <path id="DejaVuSans-34" d="M 2419 4116 
L 825 1625 
L 2419 1625 
L 2419 4116 
z
M 2253 4666 
L 3047 4666 
L 3047 1625 
L 3713 1625 
L 3713 1100 
L 3047 1100 
L 3047 0 
L 2419 0 
L 2419 1100 
L 313 1100 
L 313 1709 
L 2253 4666 
z
" transform="scale(0.015625)"/>
       </defs>
       <use xlink:href="#DejaVuSans-34"/>
       <use xlink:href="#DejaVuSans-30" transform="translate(63.623047 0)"/>
       <use xlink:href="#DejaVuSans-2e" transform="translate(127.246094 0)"/>
       <use xlink:href="#DejaVuSans-30" transform="translate(159.033203 0)"/>
      </g>
     </g>
    </g>
    <g id="ytick_4">
     <g id="line2d_21">
      <path d="M 50.69 37.469959 
L 709.2 37.469959 
" clip-path="url(#p89d4040db7)" style="fill: none; stroke: #b0b0b0; stroke-width: 0.8; stroke-linecap: square"/>
     </g>
     <g id="line2d_22">
      <g>
       <use xlink:href="#mb8241e7d4a" x="50.69" y="37.469959" style="stroke: #000000; stroke-width: 0.8"/>
      </g>
     </g>
     <g id="text_12">
      <!-- 60.0 -->
      <g transform="translate(16.97125 42.029022) scale(0.12 -0.12)">
       <defs>
        <path id="DejaVuSans-36" d="M 2113 2584 
Q 1688 2584 1439 2293 
Q 1191 2003 1191 1497 
Q 1191 994 1439 701 
Q 1688 409 2113 409 
Q 2538 409 2786 701 
Q 3034 994 3034 1497 
Q 3034 2003 2786 2293 
Q 2538 2584 2113 2584 
z
M 3366 4563 
L 3366 3988 
Q 3128 4100 2886 4159 
Q 2644 4219 2406 4219 
Q 1781 4219 1451 3797 
Q 1122 3375 1075 2522 
Q 1259 2794 1537 2939 
Q 1816 3084 2150 3084 
Q 2853 3084 3261 2657 
Q 3669 2231 3669 1497 
Q 3669 778 3244 343 
Q 2819 -91 2113 -91 
Q 1303 -91 875 529 
Q 447 1150 447 2328 
Q 447 3434 972 4092 
Q 1497 4750 2381 4750 
Q 2619 4750 2861 4703 
Q 3103 4656 3366 4563 
z
" transform="scale(0.015625)"/>
       </defs>
       <use xlink:href="#DejaVuSans-36"/>
       <use xlink:href="#DejaVuSans-30" transform="translate(63.623047 0)"/>
       <use xlink:href="#DejaVuSans-2e" transform="translate(127.246094 0)"/>
       <use xlink:href="#DejaVuSans-30" transform="translate(159.033203 0)"/>
      </g>
     </g>
    </g>
    <g id="text_13">
     <!-- % -->
     <g transform="translate(10.059688 84.346633) rotate(-90) scale(0.14 -0.14)">
      <defs>
       <path id="DejaVuSans-25" d="M 4653 2053 
Q 4381 2053 4226 1822 
Q 4072 1591 4072 1178 
Q 4072 772 4226 539 
Q 4381 306 4653 306 
Q 4919 306 5073 539 
Q 5228 772 5228 1178 
Q 5228 1588 5073 1820 
Q 4919 2053 4653 2053 
z
M 4653 2450 
Q 5147 2450 5437 2106 
Q 5728 1763 5728 1178 
Q 5728 594 5436 251 
Q 5144 -91 4653 -91 
Q 4153 -91 3862 251 
Q 3572 594 3572 1178 
Q 3572 1766 3864 2108 
Q 4156 2450 4653 2450 
z
M 1428 4353 
Q 1159 4353 1004 4120 
Q 850 3888 850 3481 
Q 850 3069 1003 2837 
Q 1156 2606 1428 2606 
Q 1700 2606 1854 2837 
Q 2009 3069 2009 3481 
Q 2009 3884 1853 4118 
Q 1697 4353 1428 4353 
z
M 4250 4750 
L 4750 4750 
L 1831 -91 
L 1331 -91 
L 4250 4750 
z
M 1428 4750 
Q 1922 4750 2215 4408 
Q 2509 4066 2509 3481 
Q 2509 2891 2217 2550 
Q 1925 2209 1428 2209 
Q 931 2209 642 2551 
Q 353 2894 353 3481 
Q 353 4063 643 4406 
Q 934 4750 1428 4750 
z
" transform="scale(0.015625)"/>
      </defs>
      <use xlink:href="#DejaVuSans-25"/>
     </g>
    </g>
   </g>
   <g id="line2d_23">
    <path d="M 657.984568 144.591078 
L 657.984568 10.8 
" clip-path="url(#p89d4040db7)" style="fill: none; stroke-dasharray: 5.55,2.4; stroke-dashoffset: 0; stroke: #ff0000; stroke-width: 1.5"/>
   </g>
   <g id="line2d_24">
    <path d="M 100.094099 144.591078 
L 100.094099 10.8 
" clip-path="url(#p89d4040db7)" style="fill: none; stroke-dasharray: 5.55,2.4; stroke-dashoffset: 0; stroke: #ff0000; stroke-width: 1.5"/>
   </g>
   <g id="line2d_25">
    <path d="M 413.454655 144.591078 
L 413.454655 10.8 
" clip-path="url(#p89d4040db7)" style="fill: none; stroke-dasharray: 5.55,2.4; stroke-dashoffset: 0; stroke: #808080; stroke-width: 1.5"/>
   </g>
   <g id="line2d_26">
    <path d="M 344.624013 144.591078 
L 344.624013 10.8 
" clip-path="url(#p89d4040db7)" style="fill: none; stroke-dasharray: 5.55,2.4; stroke-dashoffset: 0; stroke: #808080; stroke-width: 1.5"/>
   </g>
   <g id="patch_136">
    <path d="M 50.69 144.591078 
L 50.69 10.8 
" style="fill: none; stroke: #000000; stroke-width: 0.8; stroke-linejoin: miter; stroke-linecap: square"/>
   </g>
   <g id="patch_137">
    <path d="M 709.2 144.591078 
L 709.2 10.8 
" style="fill: none; stroke: #000000; stroke-width: 0.8; stroke-linejoin: miter; stroke-linecap: square"/>
   </g>
   <g id="patch_138">
    <path d="M 50.69 144.591078 
L 709.2 144.591078 
" style="fill: none; stroke: #000000; stroke-width: 0.8; stroke-linejoin: miter; stroke-linecap: square"/>
   </g>
   <g id="patch_139">
    <path d="M 50.69 10.8 
L 709.2 10.8 
" style="fill: none; stroke: #000000; stroke-width: 0.8; stroke-linejoin: miter; stroke-linecap: square"/>
   </g>
  </g>
 </g>
 <defs>
  <clipPath id="p89d4040db7">
   <rect x="50.69" y="10.8" width="658.51" height="133.791078"/>
  </clipPath>
 </defs>
</svg>
